<svg xmlns="http://www.w3.org/2000/svg" xmlns:svg="http://www.w3.org/2000/svg" xmlns:xlink="http://www.w3.org/1999/xlink" id="svg2" width="300" height="250" version="1.0"><defs id="defs4"><linearGradient id="linearGradient3272"><stop style="stop-color:gray;stop-opacity:1" id="stop3274" offset="0"/><stop style="stop-color:#606060;stop-opacity:1" id="stop3276" offset="1"/></linearGradient><linearGradient id="linearGradient3198"><stop style="stop-color:#000;stop-opacity:.25098041" id="stop3200" offset="0"/><stop style="stop-color:#000;stop-opacity:0" id="stop3202" offset="1"/></linearGradient><linearGradient id="linearGradient3191"><stop id="stop3193" offset="0" style="stop-color:#404040;stop-opacity:1"/><stop id="stop3195" offset="1" style="stop-color:#323232;stop-opacity:1"/></linearGradient><linearGradient id="linearGradient3209"><stop id="stop3211" offset="0" style="stop-color:#000;stop-opacity:.627451"/><stop id="stop3213" offset="1" style="stop-color:#000;stop-opacity:.50196081"/></linearGradient><linearGradient id="linearGradient3197"><stop style="stop-color:#000;stop-opacity:.1254902" id="stop3199" offset="0"/><stop style="stop-color:#000;stop-opacity:0" id="stop3201" offset="1"/></linearGradient><linearGradient id="linearGradient4541"><stop style="stop-color:#222;stop-opacity:1" id="stop4543" offset="0"/><stop style="stop-color:#333;stop-opacity:1" id="stop4545" offset="1"/></linearGradient><linearGradient id="linearGradient4501"><stop style="stop-color:#fff;stop-opacity:.25098041" id="stop4503" offset="0"/><stop style="stop-color:#fff;stop-opacity:0" id="stop4505" offset="1"/></linearGradient><linearGradient id="linearGradient4108"><stop style="stop-color:#111;stop-opacity:.75294119" id="stop4110" offset="0"/><stop style="stop-color:#111;stop-opacity:.25098041" id="stop4112" offset="1"/></linearGradient><linearGradient id="linearGradient3167"><stop style="stop-color:#222;stop-opacity:1" id="stop3169" offset="0"/><stop id="stop3177" offset=".093" style="stop-color:#333;stop-opacity:0"/><stop style="stop-color:#333;stop-opacity:1" id="stop3171" offset="1"/></linearGradient><linearGradient id="linearGradient4443" x1="0" x2="0" y1="55" y2="110" gradientTransform="scale(1,0.9090909)" gradientUnits="userSpaceOnUse" xlink:href="#linearGradient3191"/><linearGradient id="linearGradient4445" x1="0" x2="0" y1="100" y2="70" gradientTransform="translate(0,90)" gradientUnits="userSpaceOnUse" xlink:href="#linearGradient4541"/><linearGradient id="linearGradient4507" x1="8" x2="8" y1="122" y2="127" gradientUnits="userSpaceOnUse" xlink:href="#linearGradient4501"/><linearGradient id="linearGradient4547" x1="0" x2="0" y1="30" y2="0" gradientUnits="userSpaceOnUse" xlink:href="#linearGradient4541"/><linearGradient id="linearGradient3203" x1="300" x2="300" y1="40" y2="35" gradientTransform="translate(0,-75)" gradientUnits="userSpaceOnUse" xlink:href="#linearGradient3197"/><linearGradient id="linearGradient3207" x1="300" x2="300" y1="40" y2="35" gradientTransform="translate(0,-40)" gradientUnits="userSpaceOnUse" xlink:href="#linearGradient3209"/><linearGradient id="linearGradient3204" x1="300" x2="300" y1="190" y2="160" gradientTransform="matrix(1,0,0,2,0,-130)" gradientUnits="userSpaceOnUse" xlink:href="#linearGradient3198"/><linearGradient id="linearGradient2431" x1="0" x2="0" y1="30" y2="0" gradientTransform="translate(1.1e-5,30)" gradientUnits="userSpaceOnUse" xlink:href="#linearGradient4541"/><linearGradient id="linearGradient3278" x1="290" x2="290" y1="41" y2="49" gradientUnits="userSpaceOnUse" xlink:href="#linearGradient3272"/></defs><metadata id="metadata7"/><g id="layer1"><g id="g4435" transform="matrix(7.5,0,0,1,0,60)"><rect id="rect2395" width="40" height="100" x="0" y="0" style="opacity:1;fill:url(#linearGradient4443);fill-opacity:1;stroke:none;stroke-width:1.5;stroke-linecap:square;stroke-linejoin:miter;stroke-miterlimit:4;stroke-dasharray:none;stroke-dashoffset:0;stroke-opacity:1"/><rect style="opacity:1;fill:#484848;fill-opacity:1;stroke:none;stroke-width:1.5;stroke-linecap:square;stroke-linejoin:miter;stroke-miterlimit:4;stroke-dasharray:none;stroke-dashoffset:0;stroke-opacity:1" id="rect3982" width="40" height="1" x="0" y="98"/></g><g id="g2450"><path id="rect4413" d="M 0,160 L 0,190 L 300,190 L 300,160 L 0,160 z M 13,172 C 14.656,172 16,173.344 16,175 C 16,176.656 14.656,178 13,178 C 11.344,178 10,176.656 10,175 C 10,173.344 11.344,172 13,172 z" style="opacity:1;fill:url(#linearGradient4445);fill-opacity:1;stroke:none;stroke-width:1.5;stroke-linecap:square;stroke-linejoin:miter;stroke-miterlimit:4;stroke-dasharray:none;stroke-dashoffset:0;stroke-opacity:1"/><path id="path4424" d="M 13,171 C 10.24,171 8,173.24 8,176 C 8,178.76 10.24,181 13,181 C 15.76,181 18,178.76 18,176 C 18,173.24 15.76,171 13,171 z M 13,172 C 14.656,172 16,173.344 16,175 C 16,176.656 14.656,178 13,178 C 11.344,178 10,176.656 10,175 C 10,173.344 11.344,172 13,172 z" style="opacity:1;fill:#474747;fill-opacity:1;stroke:none;stroke-width:1.5;stroke-linecap:square;stroke-linejoin:miter;stroke-miterlimit:4;stroke-dasharray:none;stroke-dashoffset:0;stroke-opacity:1"/><path id="path4420" d="M 13,170 C 10.24,170 8,172.24 8,175 C 8,177.76 10.24,180 13,180 C 15.76,180 18,177.76 18,175 C 18,172.24 15.76,170 13,170 z M 13,172 C 14.656,172 16,173.344 16,175 C 16,176.656 14.656,178 13,178 C 11.344,178 10,176.656 10,175 C 10,173.344 11.344,172 13,172 z" style="opacity:1;fill:#000;fill-opacity:1;stroke:none;stroke-width:1.5;stroke-linecap:square;stroke-linejoin:miter;stroke-miterlimit:4;stroke-dasharray:none;stroke-dashoffset:0;stroke-opacity:1"/><path id="path4499" d="M 8,124.5 A 3,2.5 0 1 1 2,124.5 A 3,2.5 0 1 1 8,124.5 z" transform="matrix(1,0,0,1.2,8,25.6)" style="opacity:1;fill:url(#linearGradient4507);fill-opacity:1;stroke:none;stroke-width:1.5;stroke-linecap:square;stroke-linejoin:miter;stroke-miterlimit:4;stroke-dasharray:none;stroke-dashoffset:0;stroke-opacity:1"/></g><rect style="opacity:1;fill:#eee;fill-opacity:0;stroke:none;stroke-width:1.5;stroke-linecap:square;stroke-linejoin:miter;stroke-miterlimit:4;stroke-dasharray:none;stroke-dashoffset:0;stroke-opacity:1" id="rect4569" width="300" height="300" x="0" y="170"/><g id="g2433"><rect id="rect4539" width="300" height="30" x="0" y="0" style="opacity:1;fill:url(#linearGradient4547);fill-opacity:1;stroke:none;stroke-width:1.5;stroke-linecap:square;stroke-linejoin:miter;stroke-miterlimit:4;stroke-dasharray:none;stroke-dashoffset:0;stroke-opacity:1"/><rect style="opacity:1;fill:#383838;fill-opacity:1;stroke:none;stroke-width:1.5;stroke-linecap:square;stroke-linejoin:miter;stroke-miterlimit:4;stroke-dasharray:none;stroke-dashoffset:0;stroke-opacity:1" id="rect2418" width="300" height="1" x="0" y="28"/></g><rect style="opacity:1;fill:url(#linearGradient3204);fill-opacity:1;stroke:none;stroke-width:1.5;stroke-linecap:square;stroke-linejoin:miter;stroke-miterlimit:4;stroke-dasharray:none;stroke-dashoffset:0;stroke-opacity:1" id="rect3196" width="300" height="60" x="0" y="190"/><g id="g2437"><path style="opacity:1;fill:url(#linearGradient2431);fill-opacity:1;stroke:none;stroke-width:1.5;stroke-linecap:square;stroke-linejoin:miter;stroke-miterlimit:4;stroke-dasharray:none;stroke-dashoffset:0;stroke-opacity:1" id="rect2423" d="M 0,30 L 0,60 L 300,60 L 300,30 L 0,30 z"/><rect style="opacity:1;fill:#383838;fill-opacity:1;stroke:none;stroke-width:1.5;stroke-linecap:square;stroke-linejoin:miter;stroke-miterlimit:4;stroke-dasharray:none;stroke-dashoffset:0;stroke-opacity:1" id="rect2427" width="300" height="1" x="0" y="58"/></g><path id="path3270" d="M 290,42 L 292,42 L 295,46 L 292,50 L 290,50 L 293,46 L 290,42 z" style="opacity:1;fill:#202020;fill-opacity:1;stroke:none;stroke-width:1.5;stroke-linecap:square;stroke-linejoin:miter;stroke-miterlimit:4;stroke-dasharray:none;stroke-dashoffset:0;stroke-opacity:1"/><path style="opacity:1;fill:url(#linearGradient3278);fill-opacity:1;stroke:none;stroke-width:1.5;stroke-linecap:square;stroke-linejoin:miter;stroke-miterlimit:4;stroke-dasharray:none;stroke-dashoffset:0;stroke-opacity:1" id="path3268" d="M 290,49 L 292,49 L 295,45 L 292,41 L 290,41 L 293,45 L 290,49 z"/></g></svg>